#!OML:ASF E:\emotionWalksFemale\Project 1\Capture day 1\Session 1\Female1.ASF
:FULLY-SPECIFIED
:DEGREES
555
root 9.1433 15.5079 -18.0927 176.041 -2.68718 -182.416
lowerback 8.79651 0.00400728 -2.40189
upperback -3.70204 -0.32307 0.0756616
thorax -8.86698 -0.0309026 1.48738
lowerneck -11.0321 -2.89347 -7.333
upperneck 22.6241 -5.50692 7.42238
head 9.31489 -2.89382 3.09286
rclavicle -4.72114e-016 4.77083e-015
rhumerus -45.1177 3.20754 -80.0958
rradius 34.974
rwrist 11.2349
rhand -0.893617 -53.9006
rfingers 7.12502
rthumb 24.7342 -82.3216
lclavicle -4.72114e-016 4.77083e-015
lhumerus -29.549 -7.23372 86.7784
lradius 41.355
lwrist -7.41752
lhand -9.96235 -33.8289
lfingers 7.12502
lthumb 16.0199 -4.47119
rfemur -24.344 1.65423 20.4559
rtibia 51.511
rfoot -14.4443 -21.6825
rtoes -12.3277
lfemur 5.68832 -18.413 -34.9768
ltibia 17.1578
lfoot -17.9101 17.0011
ltoes -11.4854
556
root 9.15179 15.5062 -18.2057 176.015 -3.04286 -182.458
lowerback 9.00249 0.00976 -2.53533
upperback -3.69301 -0.339384 0.042601
thorax -8.9774 -0.0301746 1.5313
lowerneck -10.9177 -2.98401 -7.38064
upperneck 22.6277 -5.69301 7.59572
head 9.31654 -2.97551 3.13984
rclavicle -1.21756e-015 1.64991e-014
rhumerus -45.1905 2.859 -79.9997
rradius 34.8006
rwrist 11.4667
rhand -1.41854 -53.4517
rfingers 7.12502
rthumb 24.231 -81.9407
lclavicle -1.21756e-015 1.64991e-014
lhumerus -29.2302 -7.29862 87.0458
lradius 41.748
lwrist -6.97253
lhand -9.72141 -34.0886
lfingers 7.12502
lthumb 16.2519 -4.74975
rfemur -24.5677 2.44798 20.342
rtibia 49.5089
rfoot -14.8122 -22.3347
rtoes -12.5482
lfemur 6.42455 -18.0267 -35.0449
ltibia 16.6987
lfoot -17.9589 16.4415
ltoes -11.7506
557
root 9.15824 15.5016 -18.3193 176.022 -3.38009 -182.49
lowerback 9.13407 -0.000811085 -2.6447
upperback -3.63878 -0.370038 0.0212151
thorax -8.99406 -0.0386334 1.57578
lowerneck -10.8539 -3.04946 -7.84971
upperneck 22.5917 -5.87298 8.2679
head 9.34069 -3.03881 3.43316
rclavicle 9.06955e-015 8.94531e-015
rhumerus -44.9911 2.56732 -79.9147
rradius 34.4149
rwrist 11.7523
rhand -1.13089 -53.2499
rfingers 7.12502
rthumb 24.5067 -81.7019
lclavicle 9.06955e-015 8.94531e-015
lhumerus -28.95 -7.49577 87.3413
lradius 42.2324
lwrist -6.44913
lhand -9.64978 -34.135
lfingers 7.12502
lthumb 16.3209 -4.80179
rfemur -24.7848 3.18872 20.1884
rtibia 47.4352
rfoot -15.1164 -22.7615
rtoes -11.7156
lfemur 7.06076 -17.7045 -35.1064
ltibia 16.3716
lfoot -17.9323 16.043
ltoes -13.6961
558
root 9.16437 15.4974 -18.4363 175.981 -3.64226 -182.419
lowerback 9.18204 -0.00039348 -2.62725
upperback -3.56019 -0.365877 0.00592116
thorax -8.93673 -0.0384972 1.54884
lowerneck -10.7208 -3.10722 -8.33053
upperneck 22.545 -6.03972 8.90465
head 9.34804 -3.10431 3.71937
rclavicle 2.18663e-015 3.97569e-016
rhumerus -44.8745 2.18591 -79.841
rradius 34.1078
rwrist 12.0465
rhand -0.562423 -53.3711
rfingers 7.12502
rthumb 25.0516 -81.7481
lclavicle 2.18663e-015 3.97569e-016
lhumerus -28.8412 -8.09063 87.6773
lradius 42.9072
lwrist -5.57562
lhand -9.96555 -34.0469
lfingers 7.12502
lthumb 16.0168 -4.68902
rfemur -24.8913 3.97846 20.1348
rtibia 45.3298
rfoot -15.2808 -23.2662
rtoes -9.67712
lfemur 7.80991 -17.5905 -35.1176
ltibia 15.9465
lfoot -17.9298 15.8558
ltoes -14.1736
559
root 9.17378 15.4954 -18.5425 176.028 -3.82493 -182.056
lowerback 9.3631 0.0098141 -2.33611
upperback -3.61685 -0.313146 0.0848767
thorax -9.10693 -0.0239591 1.46142
lowerneck -10.5165 -3.197 -8.54127
upperneck 22.5384 -6.20567 9.08815
head 9.33561 -3.19387 3.80172
rclavicle 6.03808e-015 5.1684e-015
rhumerus -44.9708 1.87879 -79.7947
rradius 33.9034
rwrist 12.4501
rhand -0.435029 -53.5109
rfingers 7.12502
rthumb 25.1736 -81.8708
lclavicle 6.03808e-015 5.1684e-015
lhumerus -29.0045 -8.64014 88.0417
lradius 43.7275
lwrist -4.70464
lhand -10.1038 -34.2119
lfingers 7.12502
lthumb 15.8836 -4.84336
rfemur -25.1083 4.94477 20.3981
rtibia 43.1511
rfoot -15.4055 -23.8927
rtoes -7.57165
lfemur 8.36248 -17.4532 -34.708
ltibia 15.5309
lfoot -18.0072 15.4797
ltoes -12.6124
560
root 9.17887 15.4899 -18.6669 175.922 -4.24123 -182.081
lowerback 9.39424 -0.0557526 -2.40403
upperback -3.53093 -0.409595 0.0539603
thorax -9.02722 -0.0685001 1.48286
lowerneck -10.3516 -3.26491 -8.59808
upperneck 22.5012 -6.33561 9.17662
head 9.30912 -3.25945 3.828
rclavicle -5.24295e-015 -1.98785e-015
rhumerus -44.9807 1.64246 -79.7804
rradius 33.707
rwrist 13.098
rhand -0.413166 -53.3913
rfingers 7.12502
rthumb 25.1946 -81.7484
lclavicle -5.24295e-015 -1.98785e-015
lhumerus -29.1083 -9.07054 88.3469
lradius 44.4556
lwrist -4.12713
lhand -10.0593 -34.5185
lfingers 7.12502
lthumb 15.9265 -5.15333
rfemur -24.9853 5.67989 20.1594
rtibia 40.9616
rfoot -15.7528 -24.3854
rtoes -6.96497
lfemur 9.17788 -17.1836 -34.791
ltibia 15.1981
lfoot -18.194 14.8951
ltoes -12.1104
561
root 9.18295 15.4832 -18.7873 175.91 -4.55505 -182.018
lowerback 9.31294 -0.105146 -2.36339
upperback -3.40384 -0.463357 0.0499337
thorax -8.8388 -0.0992801 1.46328
lowerneck -10.2331 -3.27796 -8.75253
upperneck 22.4016 -6.40877 9.49469
head 9.27436 -3.28103 3.95775
rclavicle 6.41081e-015 -9.93923e-016
rhumerus -44.804 1.33973 -79.7366
rradius 33.4983
rwrist 13.74
rhand 0.157011 -53.3857
rfingers 7.12502
rthumb 25.7408 -81.6647
lclavicle 6.41081e-015 -9.93923e-016
lhumerus -29.102 -9.6723 88.6497
lradius 45.2096
lwrist -3.60238
lhand -10.1591 -34.66
lfingers 7.12502
lthumb 15.8305 -5.28718
rfemur -24.9796 6.62248 19.9765
rtibia 38.7599
rfoot -15.6762 -25.1563
rtoes -8.25293
lfemur 9.82328 -16.9459 -34.738
ltibia 14.9046
lfoot -18.3781 14.4866
ltoes -13.1598
562
root 9.18809 15.4724 -18.9028 176.012 -4.79261 -181.881
lowerback 9.21381 -0.104871 -2.20445
upperback -3.35498 -0.437805 0.0533653
thorax -8.72918 -0.0970248 1.37202
lowerneck -10.0561 -3.32859 -9.03885
upperneck 22.3172 -6.55425 9.92828
head 9.24998 -3.34192 4.14301
rclavicle 6.95746e-015 4.37326e-015
rhumerus -44.6631 1.11166 -79.7083
rradius 33.2488
rwrist 13.9993
rhand 0.728586 -53.6651
rfingers 7.12502
rthumb 26.288 -81.8637
lclavicle 6.95746e-015 4.37326e-015
lhumerus -29.2216 -10.3107 89.0159
lradius 45.9233
lwrist -3.18095
lhand -10.4241 -34.9158
lfingers 7.12502
lthumb 15.5753 -5.52291
rfemur -25.1019 7.59841 19.8447
rtibia 36.592
rfoot -14.7708 -26.1162
rtoes -12.1299
lfemur 10.3627 -16.7318 -34.5486
ltibia 14.4738
lfoot -18.405 14.1421
ltoes -13.9644
563
root 9.19199 15.4598 -19.0203 176.129 -5.07771 -181.968
lowerback 9.24692 -0.0837921 -2.25702
upperback -3.43299 -0.425911 -0.00803677
thorax -8.83419 -0.0894124 1.33515
lowerneck -9.83716 -3.41421 -9.27157
upperneck 22.3335 -6.76603 10.2605
head 9.25596 -3.44692 4.27707
rclavicle -5.96354e-015 -1.39149e-015
rhumerus -44.8137 1.03592 -79.7311
rradius 33.1123
rwrist 14.0949
rhand 0.53945 -53.684
rfingers 7.12502
rthumb 26.107 -81.9095
lclavicle -5.96354e-015 -1.39149e-015
lhumerus -29.6442 -10.9357 89.4336
lradius 46.6873
lwrist -2.79249
lhand -10.5981 -35.1363
lfingers 7.12502
lthumb 15.4076 -5.73053
rfemur -25.1552 8.46589 19.4341
rtibia 34.4043
rfoot -13.3464 -26.9961
rtoes -17.456
lfemur 10.7925 -16.5616 -34.6298
ltibia 14.2942
lfoot -18.4659 13.8695
ltoes -14.2572
